HIERARCHY
ROOT Hips
{
	OFFSET 0.00000 0.00000 0.00000
	CHANNELS 6 Xposition Yposition Zposition Zrotation Yrotation Xrotation 
	JOINT LHipJoint
	{
		OFFSET 0 0 0
		CHANNELS 3 Zrotation Yrotation Xrotation
		JOINT LeftHip
		{
			OFFSET 1.86795 -1.59681 0.65681
			CHANNELS 3 Zrotation Yrotation Xrotation
			JOINT LeftKnee
			{
				OFFSET 2.30491 -6.33268 0.00000
				CHANNELS 3 Zrotation Yrotation Xrotation
				JOINT LeftAnkle
				{
					OFFSET 2.46780 -6.78022 0.00000
					CHANNELS 3 Zrotation Yrotation Xrotation
					JOINT LeftToe
					{
						OFFSET 0.07897 -0.21698 1.59652
						CHANNELS 3 Zrotation Yrotation Xrotation
						End Site
						{
							OFFSET 0.00000 -0.00000 0.82310
						}
					}
				}
			}
		}
	}
	JOINT RHipJoint
	{
		OFFSET 0 0 0
		CHANNELS 3 Zrotation Yrotation Xrotation
		JOINT RightHip
		{
			OFFSET -1.93650 -1.59681 0.65681
			CHANNELS 3 Zrotation Yrotation Xrotation
			JOINT RightKnee
			{
				OFFSET -2.29410 -6.30299 0.00000
				CHANNELS 3 Zrotation Yrotation Xrotation
				JOINT RightAnkle
				{
					OFFSET -2.48738 -6.83403 0.00000
					CHANNELS 3 Zrotation Yrotation Xrotation
					JOINT RightToe
					{
						OFFSET -0.08699 -0.23899 1.89395
						CHANNELS 3 Zrotation Yrotation Xrotation
						End Site
						{
							OFFSET -0.00000 -0.00000 0.96904
						}
					}
				}
			}
		}
	}
	JOINT lowerback
	{
		OFFSET 0 0 0
		CHANNELS 3 Zrotation Yrotation Xrotation
		JOINT Chest
		{
			OFFSET 0.03629 1.99740 -0.07548
			CHANNELS 3 Zrotation Yrotation Xrotation
			JOINT Chest2
			{
				OFFSET 0.03970 1.94298 0.17218
				CHANNELS 3 Zrotation Yrotation Xrotation
				JOINT lowerneck
				{
					OFFSET 0 0 0
					CHANNELS 3 Zrotation Yrotation Xrotation
					JOINT Neck
					{
						OFFSET -0.05054 1.79469 0.04241
						CHANNELS 3 Zrotation Yrotation Xrotation
						JOINT Head
						{
							OFFSET 0.05195 1.78475 -0.22133
							CHANNELS 3 Zrotation Yrotation Xrotation
							End Site
							{
								OFFSET 0.02420 1.80711 -0.07950
							}
						}
					}
				}
				JOINT LeftCollar
				{
					OFFSET 0 0 0
					CHANNELS 3 Zrotation Yrotation Xrotation
					JOINT LeftShoulder
					{
						OFFSET 2.92134 1.19850 0.36056
CHANNELS 3 Zrotation Xrotation Yrotation
						JOINT LeftElbow
						{
OFFSET 0 -4.841370 0.000000
CHANNELS 3 Zrotation Xrotation Yrotation
							JOINT LeftWrist
							{
OFFSET 0 -3.245200 -0.000000
CHANNELS 3 Zrotation Xrotation Yrotation
								JOINT lhand
								{
									OFFSET 0 0 0
CHANNELS 3 Zrotation Xrotation Yrotation
									JOINT LFingers
									{
OFFSET 0 -0.521220 0.000000
CHANNELS 3 Zrotation Xrotation Yrotation
										End Site
										{
OFFSET 0 -0.420220 0.000000
										}
									}
								}
								JOINT LThumb
								{
OFFSET 0 0.000000 0.000000
CHANNELS 3 Zrotation Xrotation Yrotation
									End Site
									{
OFFSET 0 -0.426640 0.426640
									}
								}
							}
						}
					}
				}
				JOINT RightCollar
				{
					OFFSET 0 0 0
					CHANNELS 3 Zrotation Yrotation Xrotation
					JOINT RightShoulder
					{
						OFFSET -2.84327 1.20795 0.50191
CHANNELS 3 Zrotation Xrotation Yrotation
						JOINT RightElbow
						{
OFFSET 0 -4.722840 0.000000
CHANNELS 3 Zrotation Xrotation Yrotation
							JOINT RightWrist
							{
OFFSET 0 -3.234590 0.000000
CHANNELS 3 Zrotation Xrotation Yrotation
								JOINT rhand
								{
									OFFSET 0 0 0
CHANNELS 3 Zrotation Xrotation Yrotation
									JOINT RFingers
									{
OFFSET 0 -0.307420 0.000000
CHANNELS 3 Zrotation Xrotation Yrotation
										End Site
										{
OFFSET 0 -0.247850 0.000000
										}
									}
								}
								JOINT RThumb
								{
OFFSET 0 0.000000 0.000000
CHANNELS 3 Zrotation Xrotation Yrotation
									End Site
									{
OFFSET 0 -0.251630 0.251630
									}
								}
							}
						}
					}
				}
			}
		}
	}
}
MOTION
Frames: 6
Frame Time: 0.008333333333333333
20.146427 14.004690 -12.695811 5.511377 -25.924458 33.674208 0.000000 0.000000 0.000000 -6.389850 -31.574196 -75.521982 13.902387 19.084123 71.906045 0.830063 15.461520 -28.852400 0.348393 -3.791616 -10.491218 0.000000 0.000000 0.000000 -4.839278 9.469722 -104.441899 -17.593798 -19.860591 82.948965 -0.549195 3.842538 15.921224 -0.030145 -1.115036 3.065483 -2.901249 -1.522932 36.843289 -1.922425 -3.797177 -3.165053 1.315221 -1.252943 -23.021168 -4.640572 1.365859 -12.083546 4.846265 2.794289 -30.316565 2.410131 1.286965 -7.632975 0.000000 0.000000 0.000000 74.478795 7.108293 22.396112 15.835386 -25.295780 3.576031 -30.588035 -8.837759 -48.258787 0.000000 0.000000 0.000000 -7.125000 0.000000 0.000000 -82.411526 60.086072 46.608672 0.000000 0.000000 0.000000 -91.804683 16.531300 -10.202353 -13.356709 -21.807702 -2.584292 -17.991818 -42.079429 -5.615367 0.000000 0.000000 0.000000 7.125000 0.000000 0.000000 6.469150 24.082017 3.286555
20.106493 14.033688 -12.656336 5.482994 -25.994595 34.144715 0.000000 0.000000 0.000000 -6.249559 -31.406382 -75.600625 13.775066 19.044337 71.516218 0.931500 14.890295 -28.983573 0.246721 -3.182226 -8.787707 0.000000 0.000000 0.000000 -5.726776 10.180349 -103.416342 -17.380693 -19.834586 82.321199 -0.376265 3.429541 13.350495 -0.002514 -0.242258 0.665761 -2.903748 -1.434274 36.214665 -1.818729 -3.637290 -3.289917 1.342234 -1.189436 -22.898196 -4.844184 1.355372 -12.039603 5.065584 2.843745 -30.403028 2.520691 1.315581 -7.677402 0.000000 0.000000 0.000000 74.091060 9.387216 23.724602 14.582028 -23.558878 3.057887 -28.151464 -5.501668 -47.865162 0.000000 0.000000 0.000000 -7.125000 0.000000 0.000000 -80.139592 60.639334 45.236068 0.000000 0.000000 0.000000 -91.313668 18.195327 -9.846775 -13.343668 -21.788665 -2.579425 -17.806729 -42.202428 -5.546169 0.000000 0.000000 0.000000 7.125000 0.000000 0.000000 6.608618 24.160674 3.346743
20.068588 14.084743 -12.604472 5.661428 -25.974931 33.907644 0.000000 0.000000 0.000000 -6.733734 -31.333158 -74.693625 13.613470 18.992538 71.020357 1.154918 13.769851 -29.442914 0.125634 -2.284185 -6.291737 0.000000 0.000000 0.000000 -6.584780 10.659390 -101.645359 -17.110211 -19.798459 81.523423 -0.282379 3.085205 11.652693 -0.001114 0.211252 -0.580359 -2.797596 -1.457072 36.224768 -1.842585 -3.629508 -3.345149 1.254309 -1.198941 -22.988692 -4.740869 1.368891 -11.721621 5.023490 2.843397 -30.629815 2.489204 1.300849 -7.805376 0.000000 0.000000 0.000000 73.674037 11.590228 24.802659 13.774757 -22.411266 2.742015 -25.099874 -3.558081 -49.148607 0.000000 0.000000 0.000000 -7.125000 0.000000 0.000000 -80.163228 61.976544 47.399137 0.000000 0.000000 0.000000 -90.896665 19.453296 -8.979862 -13.262976 -21.671300 -2.549562 -18.153918 -42.961297 -5.496022 0.000000 0.000000 0.000000 7.125000 0.000000 0.000000 6.352199 24.201309 3.208981
20.024099 14.120689 -12.581260 5.256010 -25.372614 34.597589 0.000000 0.000000 0.000000 -5.833559 -31.274864 -74.998414 13.484576 18.950218 70.623959 1.117106 13.649259 -29.074100 0.194372 -2.838156 -7.828575 0.000000 0.000000 0.000000 -6.952879 11.319793 -100.643972 -16.770090 -19.747861 80.518200 -0.204958 2.434390 9.806100 -0.004332 0.419581 -1.152862 -2.156963 -1.691377 35.573061 -1.557771 -3.568638 -3.534951 1.193735 -1.233166 -22.965278 -4.910645 1.455921 -11.758839 5.235256 3.026377 -30.470120 2.584012 1.395061 -7.756787 0.000000 0.000000 0.000000 73.042024 13.760481 26.028907 13.216348 -21.603094 2.532541 -22.430385 -1.532786 -49.616233 0.000000 0.000000 0.000000 -7.125000 0.000000 0.000000 -79.165760 62.930359 47.896482 0.000000 0.000000 0.000000 -90.977803 20.546707 -7.024736 -13.279267 -21.694948 -2.555629 -18.036154 -44.611718 -5.568071 0.000000 0.000000 0.000000 7.125000 0.000000 0.000000 6.437850 24.130022 3.263411
19.979182 14.163559 -12.540421 4.771843 -25.102539 34.707687 0.000000 0.000000 0.000000 -5.459910 -31.025379 -74.397417 13.364842 18.909971 70.255040 1.091206 13.585204 -28.836111 0.260459 -3.282953 -9.067680 0.000000 0.000000 0.000000 -7.131301 12.239029 -98.936522 -16.436263 -19.692725 79.528837 -0.152958 1.103084 7.876883 -0.013050 0.737878 -2.027814 -1.614268 -1.747891 35.419140 -1.409288 -3.367597 -3.637407 0.966365 -1.209497 -23.060889 -4.931826 1.481345 -11.443551 5.377011 3.091237 -30.451902 2.631239 1.415814 -7.803693 0.000000 0.000000 0.000000 72.501277 15.512134 27.926381 12.681067 -20.818084 2.338723 -20.289981 1.501451 -48.802113 0.000000 0.000000 0.000000 -7.125000 0.000000 0.000000 -76.279485 63.275286 45.655238 0.000000 0.000000 0.000000 -90.505906 21.411280 -6.941568 -13.194533 -21.571564 -2.524365 -17.706604 -44.676030 -7.083469 0.000000 0.000000 0.000000 7.125000 0.000000 0.000000 6.642052 22.562908 3.608744
19.925957 14.210532 -12.512817 4.834253 -24.987030 34.916189 0.000000 0.000000 0.000000 -5.379186 -30.925186 -74.105501 13.147538 18.834653 69.583007 0.992152 13.705715 -28.252489 0.352668 -3.815479 -10.558139 0.000000 0.000000 0.000000 -7.844596 13.080024 -97.724164 -16.116355 -19.634333 78.578054 -0.122941 -0.836098 6.403304 -0.010017 0.633370 -1.740688 -1.751515 -1.714355 34.871549 -1.266000 -3.341669 -3.773323 1.183592 -1.173976 -22.965435 -4.823346 1.609693 -11.056483 5.162135 3.214571 -30.701368 2.534516 1.473034 -7.957930 0.000000 0.000000 0.000000 71.657918 17.508944 28.417037 12.374182 -20.363418 2.230801 -17.789620 3.100446 -47.621247 0.000000 0.000000 0.000000 -7.125000 0.000000 0.000000 -72.426772 63.546312 42.548855 0.000000 0.000000 0.000000 -89.692028 21.739514 -9.671402 -13.152634 -21.510422 -2.508930 -18.326826 -42.096320 -7.424483 0.000000 0.000000 0.000000 7.125000 0.000000 0.000000 6.183045 22.178690 3.410727
